#!OML:ASF F:\VICON\USERDATA\INSTALL\rory3\rory3.ASF
:FULLY-SPECIFIED
:DEGREES
145
root 0.148048 17.9738 42.9949 5.48341 -3.17678 -1.19791
lowerback 15.5139 -0.595326 -1.15284
upperback -2.61084 -0.853271 1.5104
thorax -11.5805 -0.261331 2.52686
lowerneck -20.085 -1.55374 -2.92766
upperneck 13.4046 -1.96589 3.79922
head 7.47486 -0.718089 1.49382
rclavicle -6.60959e-015 1.19271e-015
rhumerus -66.4716 5.49206 -97.9408
rradius 106.687
rwrist -11.9454
rhand -15.2179 40.0163
rfingers 7.12502
rthumb 10.9546 10.3221
lclavicle -6.60959e-015 1.19271e-015
lhumerus -33.8482 -16.9549 93.8069
lradius 125.449
lwrist 36.3042
lhand -24.3292 2.88779
lfingers 7.12502
lthumb 2.15946 32.8566
rfemur -49.2502 0.97045 26.2847
rtibia 75.2593
rfoot -0.496007 -3.08407
rtoes 3.14717
lfemur 12.6835 0.313856 -23.9565
ltibia 28.866
lfoot 12.2824 -9.70194
ltoes -8.19632
146
root 0.155076 18.0497 43.5775 5.66585 -3.72135 -1.67146
lowerback 15.5161 -0.762395 -0.596857
upperback -2.90258 -0.947154 1.66668
thorax -11.9136 -0.33023 2.41361
lowerneck -20.3508 -1.54192 -3.00259
upperneck 14.1091 -1.93206 3.74335
head 7.75222 -0.705925 1.49435
rclavicle -1.21756e-015 -5.76476e-015
rhumerus -67.2463 5.06307 -97.2811
rradius 106.71
rwrist -11.8533
rhand -15.1292 40.469
rfingers 7.12502
rthumb 11.0402 10.7793
lclavicle -1.21756e-015 -5.76476e-015
lhumerus -34.5487 -17.3329 93.8173
lradius 124.954
lwrist 34.5005
lhand -23.6593 0.348622
lfingers 7.12502
lthumb 2.80642 30.3099
rfemur -48.8775 1.64002 26.7293
rtibia 70.1714
rfoot -0.0643503 -2.4524
rtoes 0.922443
lfemur 14.3122 -0.0784975 -23.9076
ltibia 27.7627
lfoot 14.7449 -9.21837
ltoes -3.05764
147
root 0.156709 18.1081 44.1614 5.90358 -4.09496 -1.66959
lowerback 14.7472 -0.85498 -0.556391
upperback -2.79192 -1.0561 1.76258
thorax -11.3284 -0.39024 2.49853
lowerneck -20.946 -1.49895 -3.14819
upperneck 14.7648 -1.77974 3.47008
head 8.0649 -0.662309 1.44821
rclavicle 4.32357e-015 2.60408e-014
rhumerus -67.3808 4.56903 -96.4432
rradius 106.983
rwrist -11.3758
rhand -15.4777 40.6001
rfingers 7.12502
rthumb 10.704 10.8928
lclavicle 4.32357e-015 2.60408e-014
lhumerus -34.6186 -18.0216 94.0364
lradius 124.459
lwrist 33.1372
lhand -24.1357 -0.797275
lfingers 7.12502
lthumb 2.34631 29.1696
rfemur -48.58 2.04749 26.6762
rtibia 64.9588
rfoot 0.786546 -1.31575
rtoes -3.12989
lfemur 15.5827 -0.702483 -24.4012
ltibia 27.3977
lfoot 16.3306 -6.89726
ltoes -1.25574
148
root 0.162043 18.1636 44.7472 6.029 -4.44351 -1.39664
lowerback 13.8191 -0.909911 -0.727983
upperback -2.49901 -1.16584 1.76581
thorax -10.447 -0.44704 2.58989
lowerneck -20.9702 -1.11082 -3.01211
upperneck 14.6299 -1.19397 2.98951
head 7.99812 -0.427272 1.33899
rclavicle 8.94531e-015 2.18663e-015
rhumerus -67.3668 3.93716 -95.6296
rradius 107.602
rwrist -10.7964
rhand -15.6991 40.2042
rfingers 7.12502
rthumb 10.4904 10.4859
lclavicle 8.94531e-015 2.18663e-015
lhumerus -34.1825 -18.759 94.0772
lradius 123.781
lwrist 32.4922
lhand -24.4716 -0.93086
lfingers 7.12502
lthumb 2.02189 29.0393
rfemur -48.1714 2.31711 26.2666
rtibia 59.8674
rfoot 1.77185 -0.0737127
rtoes -4.58814
lfemur 16.9117 -1.11326 -25.1589
ltibia 27.2037
lfoot 17.3373 -3.82231
ltoes -0.695648
149
root 0.176517 18.2097 45.3202 5.9887 -4.55762 -1.05238
lowerback 13.464 -1.06519 -0.867902
upperback -2.51306 -1.39823 1.76715
thorax -10.2402 -0.553077 2.7113
lowerneck -21.0222 -1.2778 -3.3384
upperneck 14.8379 -1.36362 3.17929
head 8.08619 -0.506362 1.43524
rclavicle 9.91439e-015 1.39149e-015
rhumerus -67.9859 3.36238 -94.8084
rradius 108.253
rwrist -10.3328
rhand -15.5189 39.8258
rfingers 7.12502
rthumb 10.6642 10.1165
lclavicle 9.91439e-015 1.39149e-015
lhumerus -34.468 -19.3314 94.3341
lradius 123.157
lwrist 31.9778
lhand -24.5882 -0.989824
lfingers 7.12502
lthumb 1.90928 28.9814
rfemur -47.4542 2.12844 25.8528
rtibia 54.6936
rfoot 2.80096 1.50345
rtoes -4.77939
lfemur 18.1323 -1.59002 -26.0334
ltibia 27.5661
lfoot 18.4351 -2.68455
ltoes -1.07134
150
root 0.179118 18.2453 45.8818 6.06534 -4.73492 -0.930643
lowerback 13.4922 -1.1646 -0.99206
upperback -2.72634 -1.53846 1.89937
thorax -10.4799 -0.602019 2.96346
lowerneck -20.6093 -1.03431 -3.15022
upperneck 14.9942 -0.967705 2.48806
head 8.04996 -0.383803 1.22344
rclavicle 1.43373e-014 -5.1684e-015
rhumerus -68.723 2.98598 -93.9121
rradius 108.872
rwrist -10.0978
rhand -15.248 39.3057
rfingers 7.12502
rthumb 10.9255 9.60999
lclavicle 1.43373e-014 -5.1684e-015
lhumerus -35.0562 -19.7902 94.8769
lradius 122.537
lwrist 31.6614
lhand -24.4768 -0.88764
lfingers 7.12502
lthumb 2.01686 29.0826
rfemur -46.7422 2.0206 25.7681
rtibia 49.4975
rfoot 3.83862 2.98297
rtoes -4.74361
lfemur 18.8711 -2.12102 -26.6726
ltibia 28.5075
lfoot 19.0264 -3.19445
ltoes -0.777084
151
root 0.177082 18.26 46.4437 6.1064 -4.91475 -0.797888
lowerback 13.6546 -1.20977 -1.2151
upperback -2.70421 -1.62613 2.02106
thorax -10.5365 -0.624345 3.24725
lowerneck -21.8646 -1.1876 -3.19334
upperneck 15.7312 -1.09832 2.31428
head 8.51646 -0.461164 1.15783
rclavicle -3.32467e-014 3.18055e-014
rhumerus -68.7986 2.60589 -93.1729
rradius 109.304
rwrist -10.0276
rhand -15.2481 39.2224
rfingers 7.12502
rthumb 10.9254 9.52667
lclavicle -3.32467e-014 3.18055e-014
lhumerus -34.9522 -20.3545 95.2071
lradius 121.643
lwrist 31.6046
lhand -24.4083 -0.741584
lfingers 7.12502
lthumb 2.083 29.228
rfemur -45.8973 1.71363 25.82
rtibia 44.4029
rfoot 4.96569 3.7077
rtoes -3.75157
lfemur 19.2996 -2.67501 -27.2498
ltibia 30.1451
lfoot 18.6833 -4.19642
ltoes -0.262177
152
root 0.182055 18.2763 46.9987 6.01689 -4.8635 -0.365016
lowerback 13.5139 -1.24221 -1.41041
upperback -2.85659 -1.71028 1.94752
thorax -10.6151 -0.652185 3.29618
lowerneck -20.4415 -1.08665 -3.27553
upperneck 15.1794 -0.9136 2.00031
head 8.08052 -0.418611 1.08747
rclavicle -5.96354e-016 1.15295e-014
rhumerus -69.375 1.78862 -92.425
rradius 109.526
rwrist -9.90289
rhand -15.4981 39.3635
rfingers 7.12502
rthumb 10.6843 9.65519
lclavicle -5.96354e-016 1.15295e-014
lhumerus -35.5715 -21.1149 95.884
lradius 120.759
lwrist 31.6216
lhand -24.2963 -0.303088
lfingers 7.12502
lthumb 2.19121 29.6654
rfemur -44.942 0.962653 25.7015
rtibia 39.65
rfoot 5.70287 3.42641
rtoes -4.48073
lfemur 19.5331 -3.39379 -28.0573
ltibia 32.1599
lfoot 18.4232 -5.34925
ltoes 0.881277
153
root 0.163222 18.2668 47.5461 5.93261 -5.22489 -0.247773
lowerback 13.427 -1.11933 -1.7801
upperback -2.59755 -1.60476 2.00144
thorax -10.2721 -0.586989 3.52979
lowerneck -21.0932 -1.18106 -3.29835
upperneck 15.3271 -0.995959 1.91026
head 8.24329 -0.465977 1.0502
rclavicle 5.41688e-015 1.31198e-014
rhumerus -68.98 0.980811 -91.7501
rradius 109.605
rwrist -9.69867
rhand -15.4694 39.7111
rfingers 7.12502
rthumb 10.712 10.0042
lclavicle 5.41688e-015 1.31198e-014
lhumerus -35.2284 -21.7857 95.95
lradius 119.763
lwrist 31.839
lhand -23.9913 -0.144934
lfingers 7.12502
lthumb 2.48574 29.8203
rfemur -44.0413 0.925329 25.9624
rtibia 35.4777
rfoot 5.46112 2.07143
rtoes -9.57922
lfemur 19.5088 -3.73247 -28.4905
ltibia 34.5925
lfoot 17.7867 -6.34886
ltoes 2.38243
154
root 0.18962 18.2476 48.0877 5.36013 -4.51114 0.298416
lowerback 14.4778 -1.38126 -1.68841
upperback -2.72356 -1.96376 1.84868
thorax -11.0107 -0.749662 3.43895
lowerneck -21.2191 -1.37485 -3.47959
upperneck 15.6184 -1.21422 1.96329
head 8.37128 -0.575164 1.0697
rclavicle -1.44616e-014 -2.3059e-014
rhumerus -69.3717 0.139859 -91.1008
rradius 109.819
rwrist -9.3538
rhand -15.536 40.0188
rfingers 7.12502
rthumb 10.6478 10.3086
lclavicle -1.44616e-014 -2.3059e-014
lhumerus -35.8523 -22.3245 96.601
lradius 118.725
lwrist 31.876
lhand -23.9549 -0.266335
lfingers 7.12502
lthumb 2.52091 29.6985
rfemur -42.8519 -1.14166 26.0583
rtibia 32.3225
rfoot 6.0613 1.20883
rtoes -9.76656
lfemur 20.0632 -4.93084 -29.5434
ltibia 37.196
lfoot 16.7347 -7.63601
ltoes 3.13518
155
root 0.179054 18.2243 48.656 5.0244 -4.48042 0.0249
lowerback 13.4527 -1.31562 -1.34953
upperback -1.72374 -1.80377 1.92189
thorax -9.32361 -0.738324 3.21409
lowerneck -22.0335 -1.60712 -3.56516
upperneck 15.0925 -1.48037 2.02797
head 8.33961 -0.692035 1.06664
rclavicle -3.06625e-014 7.15625e-015
rhumerus -67.816 -0.952419 -90.521
rradius 109.831
rwrist -8.95018
rhand -15.8135 40.0858
rfingers 7.12502
rthumb 10.3801 10.362
lclavicle -3.06625e-014 7.15625e-015
lhumerus -34.4374 -23.2512 96.4422
lradius 117.299
lwrist 31.8956
lhand -23.913 -0.151451
lfingers 7.12502
lthumb 2.56134 29.8129
rfemur -41.7594 -2.08554 27.0613
rtibia 30.063
rfoot 6.15706 -0.0413411
rtoes -13.5507
lfemur 20.108 -5.5923 -29.7711
ltibia 40.3934
lfoot 15.4052 -9.42548
ltoes 0.948851
156
root 0.174958 18.17 49.2381 4.59421 -4.32901 0.378629
lowerback 13.3583 -1.32239 -1.46359
upperback -1.63996 -1.84431 1.7811
thorax -9.17578 -0.759878 3.12894
lowerneck -21.5452 -1.64908 -3.44648
upperneck 14.9663 -1.55067 1.82424
head 8.21378 -0.742248 0.970283
rclavicle -2.01269e-014 1.70955e-014
rhumerus -67.7341 -1.82729 -90.0653
rradius 109.78
rwrist -8.67079
rhand -15.9726 39.9361
rfingers 7.12502
rthumb 10.2266 10.2047
lclavicle -2.01269e-014 1.70955e-014
lhumerus -35.0018 -23.7031 96.9806
lradius 115.948
lwrist 31.7374
lhand -24.3349 -0.101985
lfingers 7.12502
lthumb 2.15394 29.8669
rfemur -41.0728 -3.46453 27.4172
rtibia 29.0445
rfoot 4.99515 -1.3666
rtoes -19.3428
lfemur 20.0016 -5.93729 -30.3908
ltibia 43.9053
lfoot 14.0127 -11.14
ltoes -1.06411
157
root 0.181928 18.1055 49.756 4.53774 -4.32845 0.524702
lowerback 13.4075 -1.26832 -1.48534
upperback -1.72691 -1.77345 1.80826
thorax -9.30237 -0.720414 3.1605
lowerneck -20.1773 -1.38587 -3.29081
upperneck 14.2278 -1.195 1.36355
head 7.7214 -0.615219 0.83938
rclavicle 2.03754e-014 -7.15625e-015
rhumerus -67.3729 -2.55563 -89.5655
rradius 109.517
rwrist -8.37244
rhand -16.0109 39.9031
rfingers 7.12502
rthumb 10.1897 10.1699
lclavicle 2.03754e-014 -7.15625e-015
lhumerus -35.5067 -23.8329 97.5652
lradius 114.519
lwrist 31.4791
lhand -24.2653 -0.122184
lfingers 7.12502
lthumb 2.22117 29.846
rfemur -40.9531 -4.26786 27.8122
rtibia 28.4156
rfoot 6.4787 -2.52012
rtoes -9.56777
lfemur 18.7409 -6.23168 -30.7349
ltibia 48.2432
lfoot 13.2346 -11.8696
ltoes 0.530785
158
root 0.206703 18.0157 50.2784 4.22702 -4.03955 0.795447
lowerback 14.0779 -1.38331 -1.34961
upperback -1.59708 -1.91605 1.71888
thorax -9.54503 -0.794251 3.03965
lowerneck -21.3355 -1.6562 -3.48535
upperneck 14.8418 -1.5346 1.72014
head 8.13537 -0.748584 0.944067
rclavicle 4.57205e-015 -2.0276e-014
rhumerus -66.4872 -3.10065 -89.3425
rradius 109.241
rwrist -8.24335
rhand -16.1982 39.9803
rfingers 7.12502
rthumb 10.009 10.2383
lclavicle 4.57205e-015 -2.0276e-014
lhumerus -35.4239 -23.845 97.627
lradius 112.953
lwrist 31.3103
lhand -24.4342 0.00988827
lfingers 7.12502
lthumb 2.05805 29.9797
rfemur -40.5899 -6.02863 28.2297
rtibia 28.6536
rfoot 6.98969 -3.20629
rtoes -9.41137
lfemur 17.689 -6.48633 -31.2318
ltibia 52.8585
lfoot 12.9605 -12.6227
ltoes 2.82269
159
root 0.16737 17.9218 50.8259 4.29469 -4.95976 -0.729788
lowerback 13.3033 -0.966175 -0.472472
upperback -1.23492 -1.1666 2.27282
thorax -8.75386 -0.479228 2.94292
lowerneck -21.6599 -2.06673 -3.84704
upperneck 15.2031 -2.01349 1.92171
head 8.33202 -0.974641 1.0063
rclavicle -1.64991e-014 3.97569e-014
rhumerus -65.4793 -3.71664 -88.9334
rradius 108.913
rwrist -8.26283
rhand -16.392 40.0002
rfingers 7.12502
rthumb 9.82193 10.2493
lclavicle -1.64991e-014 3.97569e-014
lhumerus -35.1394 -24.0472 97.8325
lradius 111.091
lwrist 31.0673
lhand -24.3765 -0.146866
lfingers 7.12502
lthumb 2.11376 29.8224
rfemur -39.871 -4.96547 30.1147
rtibia 28.9089
rfoot 8.06633 -3.53504
rtoes -11.5666
lfemur 15.8812 -5.22222 -29.0263
ltibia 58.031
lfoot 12.3191 -13.7861
ltoes 4.20414
